General
Complete name                    : Mirror Mirror[2012]BRrip[Ac3-5.1]-=[CaLvIn]=-
Imdb Link                        : http://www.imdb.com/title/tt1667353/
Format                           : AVI
Format/Info                      : Audio Video Interleave
File size                        : 698 MiB
Duration                         : 1h 48mn
Overall bit rate                 : 903 Kbps

Video
ID                               : 0
Format                           : MPEG-4 Visual
Format profile                   : Advanced Simple@L5
Format settings, BVOP            : 2
Format settings, QPel            : No
Format settings, GMC             : No warppoints
Format settings, Matrix          : Default (H.263)
Codec ID                         : XVID
Codec ID/Hint                    : XviD
Duration                         : 1h 48mn
Bit rate                         : 701 Kbps
Width                            : 720 pixels
Height                           : 400 pixels
Display aspect ratio             : 16:9
Frame rate                       : 24.000 fps
Color space                      : YUV
Chroma subsampling               : 4:2:0
Bit depth                        : 8 bits
Scan type                        : Progressive
Compression mode                 : Lossy
Bits/(Pixel*Frame)               : 0.101
Stream size                      : 543 MiB (78%)
Writing library                  : XviD 1.2.1 (UTC 2008-12-04)

Audio
ID                               : 1
Format                           : AC-3
Format/Info                      : Audio Coding 3
Mode extension                   : CM (complete main)
Codec ID                         : 2000
Duration                         : 1h 48mn
Bit rate mode                    : Constant
Bit rate                         : 192 Kbps
Channel(s)                       : 6 channels
Channel positions                : Front: L C R, Side: L R, LFE
Sampling rate                    : 48.0 KHz
Bit depth                        : 16 bits
Compression mode                 : Lossy
Stream size                      : 149 MiB (21%)
Alignment                        : Split accross interleaves
Interleave, duration             : 42 ms (1.00 video frame)
Interleave, preload duration     : 500 ms


Screens
 
http://img232.imageshack.us/img232/5480/95054431.png 
http://img543.imageshack.us/img543/6421/98382211.png 
http://img802.imageshack.us/img802/8995/25453061.png 
http://img819.imageshack.us/img819/388/47453293.png 
http://img809.imageshack.us/img809/7236/77494786.png 
http://img843.imageshack.us/img843/2141/52674361.png 
http://img835.imageshack.us/img835/2598/80531768.png 
http://img808.imageshack.us/img808/3471/25237867.png 
http://img262.imageshack.us/img262/2227/42203859.png 
http://img39.imageshack.us/img39/6412/74904875.png